<svg width="54" height="46" viewBox="0 0 54 46" fill="none" xmlns="http://www.w3.org/2000/svg">
<path fill-rule="evenodd" clip-rule="evenodd" d="M4.25 4.33333C3.92783 4.33333 3.66666 4.5945 3.66666 4.91666V41.0833C3.66666 41.4055 3.92783 41.6667 4.25 41.6667H11.6654L31.6658 20.6136C33.2472 18.9489 35.8899 18.9151 37.5135 20.5387L50.3333 33.3585V4.91666C50.3333 4.5945 50.0722 4.33333 49.75 4.33333H4.25ZM49.75 45.1667H12.4265H12.4063H4.25C1.99484 45.1667 0.166664 43.3385 0.166664 41.0833V4.91666C0.166664 2.6615 1.99484 0.833328 4.25 0.833328H49.75C52.0052 0.833328 53.8333 2.6615 53.8333 4.91666V41.0833C53.8333 43.3385 52.0052 45.1667 49.75 45.1667ZM34.2033 23.0243L16.493 41.6667H49.75C50.0722 41.6667 50.3333 41.4055 50.3333 41.0833V38.3082L35.0387 23.0136C34.8067 22.7816 34.4292 22.7864 34.2033 23.0243ZM20 16.5833C20 18.8385 18.1718 20.6667 15.9167 20.6667C13.6615 20.6667 11.8333 18.8385 11.8333 16.5833C11.8333 14.3282 13.6615 12.5 15.9167 12.5C18.1718 12.5 20 14.3282 20 16.5833ZM23.5 16.5833C23.5 20.7715 20.1048 24.1667 15.9167 24.1667C11.7285 24.1667 8.33333 20.7715 8.33333 16.5833C8.33333 12.3952 11.7285 9 15.9167 9C20.1048 9 23.5 12.3952 23.5 16.5833Z" fill="#BDBDBD"/>
</svg>
