<svg width="48" height="53" viewBox="0 0 48 53" fill="none" xmlns="http://www.w3.org/2000/svg">
<path d="M34.5708 21.8208C35.2542 21.1374 35.2542 20.0293 34.5708 19.3459C33.8873 18.6625 32.7793 18.6625 32.0959 19.3459L21.6667 29.7751L17.0708 25.1792C16.3873 24.4958 15.2793 24.4958 14.5959 25.1792C13.9125 25.8627 13.9125 26.9707 14.5959 27.6541L20.4292 33.4874C21.1126 34.1709 22.2207 34.1709 22.9041 33.4874L34.5708 21.8208Z" fill="#E0E0E0"/>
<path fill-rule="evenodd" clip-rule="evenodd" d="M25.2597 0.485474C24.4409 0.21991 23.5591 0.219909 22.7403 0.485474L3.49026 6.72872C1.80876 7.27407 0.666656 8.83861 0.666656 10.6105V22.3333C0.666669 36.7751 9.46518 47.3114 22.6023 52.2684C23.5022 52.608 24.4978 52.608 25.3977 52.2684C38.5348 47.3114 47.3333 36.7751 47.3333 22.3333V10.6112C47.3333 8.83985 46.1918 7.27425 44.5097 6.72872L25.2597 0.485474ZM23.82 3.81475C23.937 3.77682 24.063 3.77682 24.18 3.81475L43.43 10.058C43.6719 10.1365 43.8333 10.3598 43.8333 10.6112V22.3333C43.8333 35.0765 36.1782 44.4597 24.1621 48.9938C24.0585 49.0328 23.9414 49.0328 23.8379 48.9938C11.8217 44.4597 4.16667 35.0765 4.16666 22.3333L4.16666 10.6105C4.16666 10.3598 4.32755 10.1366 4.57003 10.058L23.82 3.81475Z" fill="#E0E0E0"/>
</svg>
