<svg width="22" height="20" viewBox="0 0 22 20" fill="none" xmlns="http://www.w3.org/2000/svg">
<path fill-rule="evenodd" clip-rule="evenodd" d="M5.73649 2C3.65746 2 1.5 3.88043 1.5 6.51351C1.5 9.62088 3.8236 12.4738 6.36118 14.6342C7.60701 15.6948 8.85656 16.5479 9.79645 17.1364C10.2656 17.4301 10.6557 17.6567 10.9269 17.8091C10.9523 17.8234 10.9767 17.837 11 17.85C11.0233 17.837 11.0477 17.8234 11.0731 17.8091C11.3443 17.6567 11.7344 17.4301 12.2035 17.1364C13.1434 16.5479 14.393 15.6948 15.6388 14.6342C18.1764 12.4738 20.5 9.62088 20.5 6.51351C20.5 3.88043 18.3425 2 16.2635 2C14.1581 2 12.4627 3.38899 11.7115 5.64258C11.6094 5.94883 11.3228 6.15541 11 6.15541C10.6772 6.15541 10.3906 5.94883 10.2885 5.64258C9.53729 3.38899 7.84185 2 5.73649 2ZM11 18.7027L11.3426 19.3699C11.1276 19.4803 10.8725 19.4803 10.6574 19.3699L11 18.7027ZM0 6.51351C0 3.052 2.82903 0.5 5.73649 0.5C8.02981 0.5 9.88078 1.72621 11 3.60482C12.1192 1.72621 13.9702 0.5 16.2635 0.5C19.171 0.5 22 3.052 22 6.51351C22 10.3318 19.1986 13.5735 16.6112 15.7763C15.2945 16.8973 13.9816 17.7929 12.9996 18.4077C12.5078 18.7157 12.0971 18.9544 11.8078 19.1169C11.6631 19.1982 11.5486 19.2605 11.4694 19.3029C11.4299 19.3241 11.3991 19.3404 11.3777 19.3516L11.3529 19.3646L11.3459 19.3682L11.3438 19.3693C11.3435 19.3694 11.3426 19.3699 11 18.7027C10.6574 19.3699 10.6576 19.37 10.6574 19.3699L10.6541 19.3682L10.6471 19.3646L10.6223 19.3516C10.6009 19.3404 10.5701 19.3241 10.5306 19.3029C10.4514 19.2605 10.3369 19.1982 10.1922 19.1169C9.90294 18.9544 9.4922 18.7157 9.00042 18.4077C8.01844 17.7929 6.70549 16.8973 5.38882 15.7763C2.80141 13.5735 0 10.3318 0 6.51351Z" fill="#E0E0E0"/>
</svg>
